<?xml version="1.0" encoding="utf-8"?>
<!-- Generator: Adobe Illustrator 18.0.0, SVG Export Plug-In . SVG Version: 6.00 Build 0)  -->
<!DOCTYPE svg PUBLIC "-//W3C//DTD SVG 1.1//EN" "http://www.w3.org/Graphics/SVG/1.1/DTD/svg11.dtd">
<svg xmlns="http://www.w3.org/2000/svg" xmlns:xlink="http://www.w3.org/1999/xlink" version="1.1" id="Слой_1" x="0px" y="0px" viewBox="0 0 1024 768" enable-background="new 0 0 1024 768" xml:space="preserve">
<path fill="#FED530" stroke="" stroke-width="2" stroke-linecap="round" stroke-linejoin="round" stroke-miterlimit="10" d="  M1016.9,254c3.6-3.7-0.3-13.9-0.3-13.9c2-7-6.1-16.8-6.1-16.8c-4.1-8.6-8.6-9-8.6-9c-8.6-1.3-10.2,15.2-10.2,15.2l-12.9,10.2  c-4.7-1.6-1-14.8-1-14.8c4.5-27.9-7-25.8-7-25.8c-15.6,2-14.8,22.5-14.8,22.5l-2,12.3c-2,7.4-4.5,19.7-4.5,19.7l-13.5,11.5  c-19.3,14.8-13.9,26.6-13.9,26.6l6.6,15.2c-4.9,4.5-79.9,83.6-79.9,83.6c-4.1-1.2-32.8,14.7-32.8,14.7c0-6.6-8.2-9.4-8.2-9.4  c6.1-2.5,15.2-15.6,15.2-15.6c2.6,7.6,15.6-7.8,15.6-7.8l7.4-7.4c16.4-3.3,14.3-23.8,14.3-23.8l5.3-10.7  c17.6-53.3-30.7-71.7-30.7-71.7c-52.4-18.8-72.1,30.7-72.1,30.7c-3.3,1.2-7,6.6-7,6.6c-7,12.7,2.5,29.5,2.5,29.5l-7.4,16.4  c-7.4,11.9-2.5,14.8-2.5,14.8c-1.6,13.9,2.5,26.6,2.5,26.6c-3.7,4.5-9,27-9,27c-4.5-2.9-7.8,8.6-7.8,8.6l-20.5-2.5  c-8.6-4.1-26.2,6.6-26.2,6.6c-2.5-1.2-11.5,2.9-11.5,2.9c-2.9-2-8.6,1.2-8.6,1.2c-2.5-2-8.6,0.4-8.6,0.4  c-14.3-4.9-64.2,1.9-64.2,1.9l-9.9-5.7l-2.8-32.6l8.4-35.4c1.4-13.8,1.4-51,1-83.2c2.6-0.7,4.6-2.3,5.8-4.7c1.1-2.2,1.5-4.9,1.2-8.2  l0.3-21.1c0.8-0.8,1.5-1.7,2.1-2.8c1.6-2.9,2.2-6.8,1.8-11.3l0.6-31.3l0-0.2l0-0.2c-0.5-5.9-4-10.8-8.8-13.4  c4.2-17.4,9.9-47.5,17.9-100.5c8.5-56.4,15.4-111.8,15.4-112.3c0.3-2.8-1.6-5.3-4.4-5.6c-2.7-0.3-5.3,1.6-5.6,4.4  c-0.1,0.5-6.9,55.4-15.3,111.4c-8.2,54.5-14,84.4-18,100.8l-13.9,1.2c-4.5,0.4-8.5,2.5-11.4,5.9c-2.2,2.7-3.6,5.9-3.8,9.3  c-25.9-2.5-70.1-9.2-127.6-26.4c-87.7-26.3-225-83.3-381-205.6c-2.2-1.7-5.3-1.3-7.1,0.9c-1.7,2.2-1.3,5.3,0.9,7.1  c69.4,54.4,141,100.7,212.8,137.5c57.5,29.5,115.2,53,171.5,69.9c60.5,18.1,105.9,24.7,131.9,27.1l4.6,23.7c0.3,3.3,1.8,6.4,4.1,8.9  c-0.3,1.2-0.3,2.5-0.2,3.8l4.1,21.4c0.5,5.1,4.5,9.4,9.4,10.8c2.9,38.2,4.7,85.2-2.4,101.1l-11.1,31.2c0,0-28.3-19.1-41.6-63.1  l2.5-4.8c9-8.2,8.6-23.4,8.6-23.4l-25.4-29.9l-2-10.7l0.4-27c0.4-12.7-4.1-13.5-4.1-13.5c-13.5-0.4-11.5,20.9-11.5,20.9  c-2.5,9-14.3,8.2-14.3,8.2c-3.3-3.3-21.3-12.1-21.3-12.1l-10.2-9.6c-6.1-13.1-14.8-7.8-14.8-7.8c-7.4,6.6-0.8,19.7-0.8,19.7  c-6.6-13.1-11.5-9.1-11.5-9.1c-8.2,4.9-0.4,16.4-0.4,16.4c-3.7,0-4.9,4.9-4.9,4.9c0,16,22.5,25.8,22.5,25.8l-7.4,0.4  c-11.9-5.7-13.5-1.2-13.5-1.2c-2.5,12.3,17.6,16,17.6,16l12.3,2.5c3.3,3.7,21.3,14.8,21.3,14.8l-1.6,5.3  c-5.3,17.6,5.3,22.9,5.3,22.9c6.1-2,13.5-8.6,13.5-8.6l7.8,3.7c0.8,3.3,7,24.2,7,24.2c7.4,34.3,32.7,75.9,41.5,89.9  c-11.8,10-40.6,36.6-51,65l-31.5-7c-8.6-6.1-19.7-4.9-19.7-4.9c-83.6-29.1-117.2-25-117.2-25c-21.3-4.5-40.2,23.8-40.2,23.8  c-6.6,10.7-23.4,19.7-23.4,19.7c-25,12.3-48.8,30.3-48.8,30.3l-53.7,37.3c-5.3-2-9.4,2-9.4,2c-4.9-1.6-10.7,4.1-10.7,4.1  c-2.5-0.8-7,2.9-7,2.9c-7.8,2.9-16.8,0-16.8,0c-1-1.9-3-3-5.1-3.7c1.9-5.9,5.1-19.2-0.2-26.4c-2.7-3.6-7-5.3-12.8-4.8  c-0.2,0-0.4,0-0.5,0.1c-0.2,0.1-5.2,1.8-7.2,7.6c-1.8,5.4-0.4,12.2,4,20.5l-4.8-1c-28.7-7.4-57-28.3-57-28.3  C19.7,560.5,7,569.5,7,569.5L2.1,572c0.6,12.5,26.7,49.4,42.7,70.9c0.4,1.6,1,3.3,1.8,5.2c12.9,29.5,75,87.2,75,87.2  c12.7,18.8,38.2,31.8,38.2,31.8c0.4,0,0.7-0.1,1.1-0.2c5.1-2.3,13.6-20.3,13.6-20.3c18.4-19.3,16-36.5,16-36.5l13.9-11.1  c4.9,0,10.2-9,10.2-9c7,2,10.7-9.4,10.7-9.4c4.9-6.6,63.1-36.1,63.1-36.1c28.7-12.3,57-68,57-68c13.9-2.5,66.8,32.8,66.8,32.8  l2.9,8.2c6.6,9.4,19.3,10.7,19.3,10.7c0,5.3,13.9,8.6,13.9,8.6c10.7,11.5,53.3,20.5,53.3,20.5l14.3,13.5c42.6,40.2,93,4.9,93,4.9  c11.5-2.5,32.8-43.8,32.8-43.8l4.9-6.6c5.3,4.9-1.2,18.8-1.2,18.8c3.3,4.1,0.8,14.3,0.8,14.3c11.5-11.5,12.3-39.3,12.3-39.3  c2.5,2.5,15.2-4.1,15.2-4.1C724,613.4,779,559.7,779,559.7c13.5-14.8,49.6-38.1,49.6-38.1c33.2-18.4,40.6-60.2,40.6-60.2  c15.6-13.9,19.7-42.6,19.7-42.6l16.4-28.3c5.3-2,52.4-67.2,52.4-67.2c0.8,2,7.4-3.3,7.4-3.3l21.7-28.7c14.3-3.3,31.8-25,31.8-25  C1025.2,255.7,1016.9,254,1016.9,254z M89,582.7c1-3.2,3.4-4.5,4.2-4.8c4.1-0.2,6.9,0.8,8.6,3.1c3.9,5.3,1.4,16.7-0.5,22.8  c-2.3-0.3-4-0.2-4-0.2l-2.4-0.5C88.1,592.3,87.9,586.1,89,582.7z M194.7,645.7c-4.5-1.6-15.2,11.9-15.2,11.9c-2.5-0.4-9,6.6-9,6.6  c-2-1.2-8.2,3.7-8.2,3.7c-4.5,0.4-16.3-3.3-28-7.5c9.4-2.9,9.2-7.3,9.2-7.3l9.8-4.1c3.3,2,11.5-5.7,11.5-5.7c4.5,0.4,9-5.3,9-5.3  c3.3-1.6,45.9-16,45.9-16L194.7,645.7z M517.8,533c-6.9-2.1-14.5-4.1-19.5-5.4c2.1-3.7,5.1-8.8,8.7-14.6l13.3,7.9  C519.1,525.2,518.2,529.3,517.8,533z M511.1,506.7c8.5-13,19.5-27.8,30.9-37.1c-6,11.7-14,28.3-19.2,43.5L511.1,506.7z M554.4,532.2  c-8.6-2.5-21.3,6.1-21.3,6.1c-1.6-0.8-4.1-1.7-7.1-2.8c5.8-13.9,19.4-45.9,30.7-66.2c7.2,0.4,14.1-0.7,14.1-0.7l9,14.3  C569.6,491.6,554.4,532.2,554.4,532.2z M591.3,260.3c0.2,2,0,3.6-0.5,4.7c-0.1-8.2-0.2-15.9-0.4-22.6c0.4,0,0.7-0.1,1.1-0.2  l-0.2,17.9L591.3,260.3z M563.9,189.3c1.7-2.1,4.1-3.3,6.8-3.6l11.5-1c-1.7,6.2-2.9,9.5-3.7,11.1c-3-0.1-8.8-0.3-16.9-0.9  C561.7,192.9,562.5,190.9,563.9,189.3z M580.5,206c0.4,0,0.6,0,0.7,0c1.3,0,2.6-0.5,3.5-1.5c1.4-1.4,3.6-3.6,7.5-17.9  c2.1,1.6,3.6,4.1,3.9,6.9l-0.6,31.3l0,0.2l0,0.2c0.2,2.2,0.1,4.2-0.3,5.8c-1.4-1.6-3.1-2.8-5-3.5c-0.1-5.2-0.2-8.2-0.2-8.2  c-3.3-5.6-16.9,0-16.9,0s0.4,3.2,1,8.7c-2,0.5-3.9,1.5-5.4,3c-0.5-1-0.9-2.1-1-3.2l-4.4-22.3C572.6,205.9,578.4,206,580.5,206z   M575.5,261.6l-3.7-19.7c1.2,0.5,2.5,0.9,3.8,1.1c0.7,6.6,1.4,14.3,2.1,22.5C576.5,264.6,575.7,263.3,575.5,261.6z"/>
</svg>
